<?xml version="1.0" encoding="UTF-8" standalone="no"?>
<svg
   xmlns:dc="http://purl.org/dc/elements/1.1/"
   xmlns:cc="http://creativecommons.org/ns#"
   xmlns:rdf="http://www.w3.org/1999/02/22-rdf-syntax-ns#"
   xmlns:svg="http://www.w3.org/2000/svg"
   xmlns="http://www.w3.org/2000/svg"
   viewBox="0 0 742.32001 742.32001"
   height="742.32001"
   width="742.32001"
   xml:space="preserve"
   id="svg2"
   version="1.1"><metadata
     id="metadata8"><rdf:RDF><cc:Work
         rdf:about=""><dc:format>image/svg+xml</dc:format><dc:type
           rdf:resource="http://purl.org/dc/dcmitype/StillImage" /></cc:Work></rdf:RDF></metadata><defs
     id="defs6" /><g
     transform="matrix(1.3333333,0,0,-1.3333333,0,742.32)"
     id="g10"><g
       transform="scale(0.1)"
       id="g12"><path
         id="path14"
         style="fill:#3879c3;fill-opacity:1;fill-rule:nonzero;stroke:none"
         d="m 4544.69,1169.93 -172.9,431.41 c -2.5,6.24 -7.97,10.8 -14.55,12.15 -6.58,1.34 -13.4,-0.7 -18.15,-5.45 l -114.62,-114.62 -151.96,151.95 65.4,65.42 c 15.63,15.61 15.63,40.94 0,56.56 -15.6,15.62 -40.95,15.62 -56.56,0 l -93.69,-93.69 c -7.5,-7.5 -11.72,-17.68 -11.72,-28.29 0,-10.6 4.22,-20.78 11.72,-28.28 l 180.24,-180.23 -37.33,-37.33 -180.23,180.24 c -7.5,7.5 -17.68,11.72 -28.28,11.72 -10.61,0 -20.79,-4.22 -28.29,-11.72 l -93.69,-93.69 c -15.62,-15.62 -15.62,-40.95 0,-56.56 15.61,-15.63 40.96,-15.63 56.56,0 l 65.42,65.4 151.95,-151.96 -114.62,-114.62 c -4.76,-4.74 -6.8,-11.57 -5.45,-18.15 1.35,-6.58 5.91,-12.05 12.15,-14.55 L 4397.5,1022.74 4075,870.289 c -3.32,-1.57 -6.19,-3.66 -8.85,-5.937 -3.11,-1.582 -6.11,-3.43 -8.81,-5.883 l -264.26,-239.598 5.35,464.749 c 0.08,6.73 -3.22,13.04 -8.79,16.79 -5.56,3.77 -12.66,4.5 -18.87,1.92 l -149.75,-62.04 -82.24,198.53 85.47,35.41 c 20.41,8.46 30.1,31.86 21.64,52.27 -8.44,20.4 -31.82,30.11 -52.26,21.64 l -122.43,-50.71 c -20.39,-8.46 -30.09,-31.86 -21.64,-52.27 l 97.55,-235.48 -48.77,-20.2 -97.53,235.49 c -8.45,20.42 -31.85,30.09 -52.26,21.65 l -122.42,-50.71 c -20.41,-8.44 -30.11,-31.84 -21.65,-52.25 8.44,-20.41 31.84,-30.09 52.25,-21.65 l 85.47,35.39 82.24,-198.529 -149.77,-62.043 c -6.21,-2.566 -10.71,-8.078 -11.98,-14.687 -1.27,-6.602 0.85,-13.391 5.66,-18.09 l 332.41,-324.832 -356.27,-17.438 c -3.65,-0.179 -7.08,-0.992 -10.4,-2.07 -3.49,-0.27 -7,-0.832 -10.46,-2.082 l -335.84,-120.238 182.8,427.328 c 2.65,6.172 2,13.269 -1.7,18.883 -3.7,5.597 -9.97,8.98 -16.69,8.98 h -162.1 v 214.898 h 92.5 c 22.09,0 40,17.91 40,40 0,22.09 -17.91,40 -40,40 h -132.5 c -22.09,0 -40,-17.91 -40,-40 V 852.582 h -52.78 v 254.898 c 0,22.09 -17.91,40 -40,40 h -132.5 c -22.09,0 -40,-17.91 -40,-40 0,-22.09 17.91,-40 40,-40 h 92.5 V 852.582 h -162.1 c -6.72,0 -12.99,-3.383 -16.69,-8.98 -3.7,-5.614 -4.34,-12.711 -1.69,-18.883 L 2679.63,397.398 2343.8,517.629 c -3.45,1.242 -6.95,1.801 -10.44,2.07 -3.32,1.082 -6.76,1.903 -10.42,2.082 l -356.27,17.438 332.41,324.832 c 4.8,4.699 6.93,11.488 5.65,18.09 -1.27,6.609 -5.77,12.121 -11.98,14.687 l -149.76,62.043 82.24,198.529 85.46,-35.39 c 20.42,-8.48 43.81,1.23 52.26,21.65 8.46,20.41 -1.24,43.81 -21.65,52.25 l -122.41,50.71 c -20.41,8.47 -43.81,-1.23 -52.27,-21.65 l -97.54,-235.49 -48.76,20.2 97.54,235.49 c 8.46,20.4 -1.24,43.8 -21.65,52.26 l -122.41,50.71 c -20.4,8.47 -43.8,-1.23 -52.26,-21.64 -8.45,-20.41 1.24,-43.81 21.65,-52.27 l 85.46,-35.41 -82.24,-198.53 -149.76,62.04 c -6.22,2.59 -13.29,1.86 -18.86,-1.92 -5.57,-3.75 -8.88,-10.06 -8.8,-16.79 l 5.36,-464.741 -264.25,239.59 c -2.72,2.472 -5.74,4.332 -8.87,5.91 -2.65,2.269 -5.51,4.351 -8.81,5.91 l -322.5,152.451 431.42,172.9 c 6.24,2.5 10.8,7.97 12.16,14.55 1.34,6.58 -0.7,13.41 -5.46,18.15 l -114.62,114.62 151.96,151.96 65.4,-65.4 c 15.63,-15.63 40.95,-15.63 56.57,0 15.62,15.61 15.62,40.94 0,56.56 l -93.69,93.69 c -7.5,7.5 -17.68,11.72 -28.28,11.72 -10.61,0 -20.79,-4.22 -28.29,-11.72 l -180.24,-180.24 -37.32,37.33 180.24,180.23 c 7.5,7.5 11.72,17.68 11.72,28.28 0,10.61 -4.22,20.79 -11.72,28.29 l -93.69,93.69 c -15.62,15.62 -40.94,15.62 -56.57,0 -15.62,-15.62 -15.62,-40.95 0,-56.56 l 65.41,-65.42 -151.96,-151.95 -114.62,114.62 c -4.74,4.75 -11.56,6.8 -18.15,5.45 -6.59,-1.35 -12.05,-5.91 -14.55,-12.15 l -172.9,-431.41 -152.455,322.5 c -1.566,3.31 -3.644,6.18 -5.922,8.84 -1.582,3.1 -3.429,6.11 -5.886,8.82 L 618.871,1774.35 1083.62,1769 c 0.08,0 0.15,0 0.23,0 6.63,0 12.84,3.29 16.56,8.79 3.77,5.56 4.49,12.65 1.91,18.87 l -62.03,149.75 198.54,82.24 35.4,-85.46 c 8.45,-20.42 31.86,-30.13 52.26,-21.65 20.41,8.44 30.1,31.84 21.64,52.25 l -50.7,122.43 c -4.06,9.8 -11.85,17.58 -21.65,21.65 -9.8,4.06 -20.81,4.06 -30.61,0 l -235.49,-97.55 -20.203,48.77 235.493,97.53 c 9.8,4.06 17.59,11.85 21.64,21.65 4.07,9.8 4.07,20.82 0,30.61 l -50.7,122.42 c -8.46,20.42 -31.86,30.13 -52.26,21.65 -20.41,-8.44 -30.11,-31.84 -21.65,-52.25 l 35.4,-85.47 -198.537,-82.24 -62.035,149.77 c -2.57,6.21 -8.09,10.71 -14.683,11.98 -6.614,1.29 -13.403,-0.86 -18.094,-5.66 l -324.84,-332.42 -17.434,356.28 c -0.179,3.65 -1,7.08 -2.082,10.39 -0.265,3.5 -0.824,7.01 -2.062,10.47 l -120.238,335.83 427.316,-182.79 c 2.523,-1.08 5.199,-1.61 7.867,-1.61 3.856,0 7.695,1.11 11.016,3.31 5.609,3.7 8.984,9.97 8.984,16.69 v 162.1 h 214.892 v -92.5 c 0,-22.09 17.91,-40 40,-40 22.09,0 40,17.91 40,40 v 132.5 c 0,22.09 -17.91,40 -40,40 H 852.578 v 52.78 h 254.892 c 22.09,0 40,17.91 40,40 v 132.5 c 0,22.09 -17.91,40 -40,40 -22.09,0 -40,-17.91 -40,-40 v -92.5 H 852.578 v 162.1 c 0,6.72 -3.375,12.99 -8.984,16.69 -5.621,3.7 -12.707,4.33 -18.883,1.69 L 397.395,2887.8 517.633,3223.63 c 1.234,3.45 1.793,6.95 2.058,10.43 1.086,3.32 1.907,6.77 2.086,10.43 l 17.434,356.27 324.84,-332.41 c 3.801,-3.88 8.969,-6.02 14.301,-6.02 1.261,0 2.531,0.12 3.793,0.37 6.593,1.27 12.113,5.77 14.683,11.98 l 62.035,149.76 198.537,-82.24 -35.4,-85.46 c -8.46,-20.41 1.24,-43.81 21.65,-52.26 5,-2.07 10.19,-3.05 15.29,-3.05 15.69,0 30.59,9.29 36.97,24.7 l 50.7,122.41 c 4.07,9.8 4.07,20.82 0,30.62 -4.05,9.8 -11.84,17.59 -21.64,21.65 l -235.493,97.54 20.193,48.76 235.5,-97.54 c 5,-2.07 10.18,-3.06 15.29,-3.06 15.69,0 30.59,9.3 36.97,24.71 l 50.7,122.41 c 8.46,20.41 -1.23,43.81 -21.64,52.26 -20.39,8.45 -43.81,-1.23 -52.26,-21.65 l -35.4,-85.46 -198.54,82.24 62.03,149.77 c 2.58,6.2 1.86,13.29 -1.91,18.85 -3.76,5.57 -9.79,8.65 -16.79,8.8 l -464.741,-5.36 239.598,264.25 c 2.343,2.59 4.14,5.45 5.683,8.4 2.403,2.74 4.492,5.83 6.125,9.28 l 152.445,322.49 172.91,-431.41 c 2.5,-6.24 7.96,-10.8 14.55,-12.16 1.33,-0.27 2.68,-0.4 4.01,-0.4 5.25,0 10.35,2.07 14.14,5.86 l 114.62,114.62 151.96,-151.95 -65.41,-65.41 c -15.62,-15.63 -15.62,-40.95 0,-56.57 7.81,-7.81 18.05,-11.72 28.29,-11.72 10.24,0 20.47,3.91 28.28,11.72 l 93.69,93.69 c 7.5,7.5 11.72,17.68 11.72,28.29 0,10.6 -4.22,20.78 -11.72,28.28 l -180.24,180.24 37.32,37.32 180.24,-180.24 c 7.5,-7.5 17.68,-11.72 28.29,-11.72 10.6,0 20.78,4.22 28.28,11.72 l 93.69,93.69 c 15.62,15.62 15.62,40.94 0,56.57 -15.62,15.62 -40.94,15.62 -56.57,0 l -65.4,-65.41 -151.96,151.96 114.62,114.62 c 4.76,4.75 6.8,11.57 5.46,18.15 -1.36,6.59 -5.92,12.05 -12.16,14.55 l -431.41,172.91 322.49,152.44 c 3.3,1.57 6.17,3.64 8.82,5.91 3.12,1.58 6.14,3.44 8.86,5.9 l 264.25,239.6 -5.36,-464.74 c -0.08,-6.72 3.23,-13.02 8.8,-16.79 3.36,-2.27 7.27,-3.44 11.2,-3.44 2.6,0 5.19,0.51 7.65,1.53 l 149.77,62.03 82.24,-198.54 -85.46,-35.4 c -20.41,-8.45 -30.1,-31.85 -21.65,-52.26 6.38,-15.4 21.27,-24.7 36.97,-24.7 5.1,0 10.29,0.98 15.29,3.06 l 122.41,50.7 c 20.41,8.46 30.11,31.86 21.65,52.27 l -97.54,235.49 48.76,20.19 97.54,-235.49 c 4.06,-9.8 11.85,-17.59 21.65,-21.64 4.9,-2.04 10.1,-3.05 15.31,-3.05 5.2,0 10.4,1.01 15.31,3.05 l 122.41,50.7 c 20.41,8.46 30.11,31.85 21.65,52.26 -8.45,20.42 -31.87,30.12 -52.26,21.65 l -85.46,-35.4 -82.24,198.54 149.76,62.03 c 6.21,2.57 10.71,8.09 11.98,14.69 1.28,6.59 -0.85,13.4 -5.65,18.09 l -332.41,324.84 356.27,17.43 c 3.62,0.18 7.04,0.99 10.33,2.05 3.52,0.26 7.05,0.85 10.53,2.1 l 335.83,120.24 -182.79,-427.32 c -2.65,-6.18 -2.01,-13.27 1.69,-18.88 3.7,-5.61 9.97,-8.99 16.69,-8.99 h 162.1 v -214.89 h -92.5 c -22.09,0 -40,-17.91 -40,-40 0,-22.09 17.91,-40 40,-40 h 132.5 c 22.09,0 40,17.91 40,40 v 254.89 h 52.78 v -254.89 c 0,-22.09 17.91,-40 40,-40 h 132.5 c 22.09,0 40,17.91 40,40 0,22.09 -17.91,40 -40,40 h -92.5 v 214.89 h 162.1 c 6.72,0 12.99,3.38 16.69,8.99 3.7,5.61 4.35,12.7 1.7,18.88 l -182.79,427.32 335.83,-120.24 c 3.48,-1.25 7.01,-1.84 10.53,-2.1 3.29,-1.06 6.7,-1.87 10.33,-2.05 l 356.28,-17.43 -332.42,-324.84 c -4.81,-4.69 -6.93,-11.5 -5.66,-18.09 1.27,-6.6 5.77,-12.12 11.98,-14.69 l 149.76,-62.03 -82.23,-198.54 -85.47,35.4 c -20.41,8.48 -43.81,-1.25 -52.25,-21.65 -8.46,-20.41 1.24,-43.8 21.65,-52.26 l 122.42,-50.7 c 4.89,-2.04 10.1,-3.05 15.3,-3.05 5.21,0 10.41,1.01 15.31,3.05 9.8,4.05 17.59,11.84 21.65,21.64 l 97.53,235.49 48.77,-20.2 -97.55,-235.48 c -4.06,-9.8 -4.06,-20.82 0,-30.62 4.07,-9.8 11.85,-17.59 21.65,-21.65 l 122.43,-50.7 c 5,-2.08 10.18,-3.06 15.28,-3.06 15.7,0 30.6,9.3 36.97,24.7 8.46,20.41 -1.24,43.81 -21.65,52.26 l -85.46,35.4 82.24,198.54 149.75,-62.03 c 2.47,-1.02 5.07,-1.53 7.66,-1.53 3.94,0 7.85,1.17 11.21,3.44 5.57,3.77 8.87,10.07 8.79,16.79 l -5.35,464.75 264.26,-239.61 c 2.71,-2.45 5.72,-4.31 8.83,-5.89 2.66,-2.27 5.52,-4.35 8.83,-5.92 l 322.5,-152.45 -431.41,-172.9 c -6.24,-2.5 -10.8,-7.96 -12.15,-14.55 -1.35,-6.58 0.69,-13.4 5.45,-18.15 l 114.62,-114.62 -151.95,-151.96 -65.42,65.41 c -15.6,15.62 -40.95,15.62 -56.56,0 -15.62,-15.63 -15.62,-40.95 0,-56.57 l 93.69,-93.69 c 7.5,-7.5 17.68,-11.72 28.29,-11.72 10.6,0 20.78,4.22 28.28,11.72 l 180.23,180.24 37.33,-37.32 -180.24,-180.24 c -7.5,-7.5 -11.72,-17.68 -11.72,-28.28 0,-10.61 4.22,-20.79 11.72,-28.29 l 93.69,-93.69 c 7.8,-7.81 18.05,-11.72 28.28,-11.72 10.24,0 20.48,3.91 28.28,11.72 15.63,15.62 15.63,40.94 0,56.57 l -65.4,65.41 151.96,151.95 114.62,-114.62 c 3.79,-3.79 8.88,-5.86 14.14,-5.86 1.33,0 2.67,0.13 4.01,0.4 6.58,1.36 12.05,5.92 14.55,12.16 l 172.9,431.42 152.45,-322.5 c 1.64,-3.46 3.73,-6.56 6.14,-9.3 1.54,-2.95 3.34,-5.8 5.68,-8.38 l 239.59,-264.25 -464.74,5.36 c -6.95,0.04 -13.03,-3.23 -16.79,-8.8 -3.77,-5.56 -4.49,-12.65 -1.92,-18.86 l 62.04,-149.76 -198.53,-82.24 -35.41,85.46 c -8.45,20.41 -31.82,30.13 -52.27,21.65 -20.41,-8.45 -30.1,-31.86 -21.64,-52.26 L 4270,3471.22 c 6.38,-15.41 21.27,-24.71 36.98,-24.71 5.09,0 10.28,0.99 15.28,3.06 l 235.49,97.54 20.2,-48.76 -235.49,-97.54 c -20.4,-8.46 -30.1,-31.86 -21.65,-52.27 l 50.71,-122.41 c 6.37,-15.41 21.27,-24.7 36.97,-24.7 5.1,0 10.28,0.98 15.28,3.05 20.41,8.45 30.11,31.85 21.65,52.26 l -35.39,85.46 198.53,82.24 62.04,-149.76 c 2.57,-6.21 8.08,-10.71 14.69,-11.98 1.26,-0.25 2.53,-0.37 3.79,-0.37 5.33,0 10.5,2.14 14.3,6.02 l 324.83,332.41 17.44,-356.27 c 0.18,-3.66 1,-7.11 2.08,-10.44 0.27,-3.48 0.83,-6.97 2.07,-10.42 l 120.23,-335.83 -427.32,182.79 c -6.17,2.64 -13.27,2.01 -18.88,-1.69 -5.6,-3.7 -8.98,-9.97 -8.98,-16.69 v -162.1 h -214.9 v 92.5 c 0,22.09 -17.91,40 -40,40 -22.09,0 -40,-17.91 -40,-40 v -132.5 c 0,-22.09 17.91,-40 40,-40 h 254.9 v -52.78 h -254.9 c -22.09,0 -40,-17.91 -40,-40 v -132.5 c 0,-22.09 17.91,-40 40,-40 22.09,0 40,17.91 40,40 v 92.5 h 214.9 v -162.1 c 0,-6.72 3.38,-12.99 8.98,-16.69 3.32,-2.2 7.16,-3.31 11.02,-3.31 2.66,0 5.34,0.54 7.86,1.61 l 427.33,182.8 -120.24,-335.84 c -1.24,-3.45 -1.8,-6.95 -2.07,-10.43 -1.08,-3.32 -1.9,-6.76 -2.08,-10.43 l -17.44,-356.27 -324.83,332.41 c -4.7,4.82 -11.5,6.95 -18.09,5.66 -6.61,-1.27 -12.12,-5.77 -14.69,-11.98 l -62.04,-149.77 -198.53,82.24 35.39,85.47 c 8.46,20.41 -1.24,43.81 -21.65,52.25 -20.4,8.51 -43.81,-1.24 -52.25,-21.65 l -50.71,-122.42 c -8.45,-20.41 1.25,-43.81 21.65,-52.26 l 235.49,-97.53 -20.2,-48.77 -235.48,97.55 c -20.45,8.48 -43.82,-1.25 -52.27,-21.64 l -50.71,-122.43 c -8.46,-20.41 1.23,-43.8 21.64,-52.26 20.45,-8.48 43.82,1.24 52.27,21.64 l 35.41,85.47 198.53,-82.24 -62.04,-149.75 c -2.57,-6.22 -1.85,-13.31 1.92,-18.87 3.72,-5.5 9.93,-8.79 16.56,-8.79 0.08,0 0.15,0 0.23,0 l 464.75,5.35 -239.6,-264.26 c -2.45,-2.7 -4.31,-5.71 -5.88,-8.81 -2.29,-2.66 -4.37,-5.53 -5.94,-8.85 z m 838.26,1798.27 c -53.61,0 -101.72,-23.01 -135.43,-59.52 l -122.02,340.84 -17.7,361.6 c 45.11,-20.83 98.37,-23.67 147.89,-3.16 94.13,38.99 138.83,146.91 99.84,241.04 -38.99,94.13 -146.9,138.83 -241.04,99.84 -49.52,-20.52 -85.17,-60.18 -102.34,-106.81 l -243.17,268.2 -154.72,327.29 c 49.65,-1.97 99.93,15.78 137.84,53.68 72.04,72.05 72.04,188.85 0,260.9 -72.05,72.04 -188.85,72.04 -260.9,0 -37.9,-37.9 -55.66,-88.19 -53.68,-137.83 l -327.29,154.71 -268.2,243.18 c 46.63,17.16 86.29,52.81 106.81,102.34 38.99,94.13 -5.71,202.04 -99.84,241.03 -94.14,38.99 -202.05,-5.71 -241.04,-99.84 -20.51,-49.52 -17.67,-102.78 3.15,-147.89 l -361.57,17.7 -340.85,122.03 c 36.51,33.71 59.5,81.82 59.5,135.42 0,101.89 -82.59,184.48 -184.48,184.48 -101.88,0 -184.48,-82.59 -184.48,-184.48 0,-53.6 23.01,-101.72 59.51,-135.42 L 2317.9,5125.5 1956.31,5107.8 c 20.83,45.11 23.67,98.37 3.16,147.89 -38.99,94.13 -146.91,138.83 -241.04,99.84 -94.13,-38.99 -138.83,-146.9 -99.84,-241.03 20.52,-49.52 60.18,-85.17 106.8,-102.34 l -268.2,-243.18 -327.28,-154.72 c 1.98,49.65 -15.78,99.94 -53.68,137.84 -72.05,72.04 -188.855,72.04 -260.898,0 -72.047,-72.05 -72.047,-188.85 0,-260.9 37.902,-37.9 88.188,-55.66 137.836,-53.68 l -154.715,-327.28 -243.18,-268.2 c -17.171,46.62 -52.82,86.29 -102.339,106.8 -94.129,38.99 -202.047,-5.71 -241.036,-99.84 -38.992,-94.13 5.707,-202.05 99.84,-241.04 49.524,-20.51 102.778,-17.67 147.887,3.16 L 441.93,3249.53 319.902,2908.69 C 286.195,2945.2 238.082,2968.2 184.48,2968.2 82.5938,2968.2 0,2885.6 0,2783.72 c 0,-101.89 82.5938,-184.48 184.48,-184.48 53.602,0 101.711,22.99 135.418,59.5 l 122.032,-340.85 17.695,-361.57 c -45.109,20.82 -98.363,23.66 -147.887,3.15 -94.133,-38.99 -138.832,-146.91 -99.84,-241.04 38.989,-94.13 146.907,-138.83 241.036,-99.84 49.519,20.52 85.171,60.18 102.339,106.81 l 243.176,-268.2 154.715,-327.29 c -49.644,1.98 -99.93,-15.78 -137.832,-53.68 -72.047,-72.05 -72.047,-188.851 0,-260.902 72.043,-72.039 188.848,-72.039 260.898,0 37.9,37.91 55.65,88.192 53.68,137.844 L 1457.2,798.449 1725.4,555.281 c -46.63,-17.172 -86.29,-52.82 -106.81,-102.34 -38.99,-94.14 5.71,-202.05 99.84,-241.043 94.13,-38.988 202.05,5.711 241.04,99.844 20.51,49.52 17.67,102.778 -3.16,147.887 l 361.6,-17.699 340.83,-122.02 c -36.5,-33.711 -59.51,-81.82 -59.51,-135.43 0,-101.8784 82.6,-184.48 184.48,-184.48 101.89,0 184.48,82.6016 184.48,184.48 0,53.61 -23,101.719 -59.5,135.418 l 340.84,122.043 361.58,17.688 c -20.82,-45.109 -23.66,-98.367 -3.15,-147.887 38.99,-94.133 146.9,-138.832 241.04,-99.844 94.13,38.993 138.83,146.903 99.84,241.043 -20.52,49.52 -60.18,85.168 -106.81,102.34 l 268.19,243.16 327.3,154.731 c -1.98,-49.652 15.78,-99.934 53.68,-137.844 72.05,-72.039 188.85,-72.039 260.9,0 72.04,72.051 72.04,188.852 0,260.902 -37.91,37.9 -88.19,55.66 -137.84,53.68 l 154.73,327.3 243.16,268.19 c 17.17,-46.63 52.82,-86.29 102.34,-106.81 94.14,-38.99 202.05,5.71 241.04,99.84 38.99,94.13 -5.71,202.05 -99.84,241.04 -49.52,20.51 -102.78,17.67 -147.89,-3.16 l 17.69,361.59 122.04,340.84 c 33.7,-36.5 81.81,-59.5 135.42,-59.5 101.88,0 184.48,82.59 184.48,184.48 0,101.88 -82.6,184.48 -184.48,184.48" /><path
         id="path16"
         style="fill:#3879c3;fill-opacity:1;fill-rule:nonzero;stroke:none"
         d="m 1864.22,2511.36 c -13.2,-5.59 -29.04,-8.36 -47.52,-8.36 -21.12,0 -39.2,5.27 -54.25,15.84 -15.05,10.55 -27.46,25.51 -37.22,44.87 -9.78,19.36 -16.91,42.38 -21.39,69.08 -4.49,26.69 -6.73,56.17 -6.73,88.44 0,75.1 9.76,130.25 29.3,165.45 19.53,35.19 47.52,52.8 83.95,52.8 18.48,0 34.46,-1.62 47.92,-4.84 13.47,-3.24 25.21,-7.79 35.24,-13.65 l 19.8,97.68 c -12.15,5.86 -27.85,11.14 -47.12,15.84 -19.28,4.69 -41.85,7.05 -67.72,7.05 -25.34,0 -50.42,-4.99 -75.24,-14.96 -24.82,-9.99 -46.86,-27.15 -66.13,-51.49 -19.28,-24.35 -34.85,-57.06 -46.73,-98.11 -11.88,-41.07 -17.81,-92.71 -17.81,-154.88 0,-59.85 5.27,-110.3 15.84,-151.37 10.55,-41.06 25.07,-74.22 43.56,-99.43 18.47,-25.24 39.99,-43.28 64.54,-54.12 24.56,-10.85 51.09,-16.28 79.6,-16.28 22.7,0 45.54,2.94 68.51,8.8 22.97,5.85 41.31,15.24 55.04,28.15 l -19.8,93.28 c -10.56,-7.63 -22.44,-14.23 -35.64,-19.79" /><path
         id="path18"
         style="fill:#3879c3;fill-opacity:1;fill-rule:nonzero;stroke:none"
         d="m 2086.76,2673.71 h 160.78 v 102.08 h -160.78 v 151.37 h 177.41 v 102.08 h -277.2 v -616.01 h 280.37 v 102.08 h -180.58 v 158.4" /><path
         id="path20"
         style="fill:#3879c3;fill-opacity:1;fill-rule:nonzero;stroke:none"
         d="m 2053.5,3065.32 c 18.48,0 31.8,4.53 39.99,13.63 8.18,9.1 12.28,21.26 12.28,36.53 0,15.25 -4.1,27.57 -12.28,36.96 -8.19,9.38 -21.51,14.08 -39.99,14.08 -20.07,0 -34.2,-4.7 -42.37,-14.08 -8.2,-9.39 -12.28,-21.71 -12.28,-36.96 0,-15.27 4.08,-27.43 12.28,-36.53 8.17,-9.1 22.3,-13.63 42.37,-13.63" /><path
         id="path22"
         style="fill:#3879c3;fill-opacity:1;fill-rule:nonzero;stroke:none"
         d="m 2196.06,3065.32 c 19.53,0 33.39,4.53 41.58,13.63 8.18,9.1 12.28,21.26 12.28,36.53 0,15.25 -4.1,27.57 -12.28,36.96 -8.19,9.38 -22.05,14.08 -41.58,14.08 -19.01,0 -32.61,-4.7 -40.79,-14.08 -8.19,-9.39 -12.27,-21.71 -12.27,-36.96 0,-15.27 4.08,-27.43 12.27,-36.53 8.18,-9.1 21.78,-13.63 40.79,-13.63" /><path
         id="path24"
         style="fill:#3879c3;fill-opacity:1;fill-rule:nonzero;stroke:none"
         d="m 2606.31,2511.36 c -13.21,-5.59 -29.05,-8.36 -47.52,-8.36 -21.13,0 -39.21,5.27 -54.26,15.84 -15.04,10.55 -27.46,25.51 -37.22,44.87 -9.78,19.36 -16.9,42.38 -21.38,69.08 -4.5,26.69 -6.74,56.17 -6.74,88.44 0,75.1 9.77,130.25 29.31,165.45 19.53,35.19 47.52,52.8 83.95,52.8 18.48,0 34.45,-1.62 47.91,-4.84 13.47,-3.24 25.21,-7.79 35.25,-13.65 l 19.8,97.68 c -12.15,5.86 -27.85,11.14 -47.13,15.84 -19.27,4.69 -41.85,7.05 -67.71,7.05 -25.34,0 -50.43,-4.99 -75.24,-14.96 -24.82,-9.99 -46.87,-27.15 -66.13,-51.49 -19.28,-24.35 -34.85,-57.06 -46.73,-98.11 -11.88,-41.07 -17.82,-92.71 -17.82,-154.88 0,-59.85 5.27,-110.3 15.84,-151.37 10.56,-41.06 25.08,-74.22 43.56,-99.43 18.48,-25.24 40,-43.28 64.55,-54.12 24.55,-10.85 51.08,-16.28 79.6,-16.28 22.69,0 45.53,2.94 68.5,8.8 22.97,5.85 41.31,15.24 55.05,28.15 l -19.8,93.28 c -10.57,-7.63 -22.45,-14.23 -35.64,-19.79" /><path
         id="path26"
         style="fill:#3879c3;fill-opacity:1;fill-rule:nonzero;stroke:none"
         d="m 2695,2927.16 h 131.47 v -513.93 h 99.79 v 513.93 h 131.47 v 102.08 H 2695 v -102.08" /><path
         id="path28"
         style="fill:#3879c3;fill-opacity:1;fill-rule:nonzero;stroke:none"
         d="m 3335.72,2778.88 c -4.76,-14.97 -11.22,-26.71 -19.4,-35.2 -8.2,-8.52 -17.56,-14.53 -28.12,-18.04 -10.57,-3.52 -21.66,-5.28 -33.26,-5.28 -3.17,0 -9.11,0.43 -17.82,1.32 -8.71,0.88 -14.65,1.89 -17.82,3.07 v 210.33 c 10.55,2.93 24.02,4.4 40.39,4.4 11.09,0 21.65,-1.76 31.68,-5.28 10.02,-3.52 18.87,-9.25 26.53,-17.17 7.65,-7.92 13.73,-18.62 18.22,-32.11 4.47,-13.51 6.73,-29.93 6.73,-49.28 0,-22.88 -2.37,-41.8 -7.13,-56.76 z m 49.1,222.2 c -18.48,14.65 -39.47,24.49 -62.96,29.47 -23.5,4.99 -47.4,7.49 -71.68,7.49 -22.7,0 -45.41,-1.32 -68.11,-3.96 -22.71,-2.65 -43.56,-6.32 -62.56,-11.01 v -609.84 h 99.79 v 212.08 c 2.11,-0.59 5.67,-1.18 10.69,-1.76 5.01,-0.59 10.15,-1.03 15.45,-1.32 5.26,-0.3 10.29,-0.44 15.04,-0.44 4.75,0 8.18,0 10.3,0 22.7,0 44.75,3.81 66.13,11.44 21.38,7.62 40.26,19.94 56.62,36.96 16.37,17.02 29.44,39.01 39.21,66 9.77,26.98 14.65,59.84 14.65,98.56 0,42.82 -5.81,77.58 -17.42,104.29 -11.62,26.69 -26.67,47.36 -45.15,62.04" /><path
         id="path30"
         style="fill:#3879c3;fill-opacity:1;fill-rule:nonzero;stroke:none"
         d="m 3707.96,2530.71 c -13.21,-16.14 -31.68,-24.2 -55.44,-24.2 -6.88,0 -13.47,0.44 -19.81,1.32 -6.34,0.88 -11.62,2.21 -15.84,3.96 v 193.6 c 3.18,1.77 8.71,3.52 16.63,5.29 7.92,1.75 14.53,2.63 19.81,2.63 11.08,0 21.25,-1.31 30.49,-3.96 9.23,-2.63 17.03,-7.78 23.37,-15.4 6.33,-7.62 11.34,-17.9 15.04,-30.8 3.69,-12.91 5.54,-29.34 5.54,-49.27 0,-39.32 -6.6,-67.04 -19.79,-83.17 z m 77.61,245.97 c -14.25,14.65 -31.02,24.77 -50.29,30.35 -19.28,5.58 -40,8.36 -62.18,8.36 -10.56,0 -21.37,-0.88 -32.47,-2.63 -11.08,-1.77 -19,-3.23 -23.76,-4.4 v 220.88 h -99.78 v -610.73 c 10.54,-2.94 22.03,-5.42 34.44,-7.48 12.4,-2.05 24.56,-3.51 36.44,-4.4 11.88,-0.88 22.83,-1.46 32.87,-1.76 10.02,-0.28 18.21,-0.44 24.55,-0.44 65.46,0 112.98,17.74 142.56,53.24 29.56,35.49 44.35,89.32 44.35,161.48 0,39.31 -4.24,71.73 -12.67,97.25 -8.45,25.52 -19.8,45.6 -34.06,60.28" /><path
         id="path32"
         style="fill:#3879c3;fill-opacity:1;fill-rule:nonzero;stroke:none"
         d="m 3875.07,2413.23 h 99.79 v 616.01 h -99.79 v -616.01" /></g></g></svg>